<svg xmlns="http://www.w3.org/2000/svg" viewBox="0 0 320 210"><rect width="320" height="210" fill="white"/><defs><filter id="ink-edge" x="-3%" y="-3%" width="106%" height="106%"><feTurbulence type="fractalNoise" baseFrequency="0.055" numOctaves="2" seed="7" result="ink"/><feDisplacementMap in="SourceGraphic" in2="ink" scale="0.6" xChannelSelector="R" yChannelSelector="G"/></filter></defs><g filter="url(#ink-edge)"><rect x="36" y="67" width="80" height="75" fill="#e1eaf0"/><path d="m261 97 28 10v25c0 17-16 29-28 37-12-8-28-20-28-37v-25Z" fill="#dce6d3"/><g fill="none" stroke="#373d3b" stroke-width="2.2" stroke-linecap="round" stroke-linejoin="round"><path d="M36 67h80v75H36zM49 67V31h53v36M45 92h62M44 142v23M108 142v23M146 116h63m-17-17 17 17-17 17"/><path d="m261 97 28 10v25c0 17-16 29-28 37-12-8-28-20-28-37v-25Z"/></g></g></svg>